<svg id="heart" xmlns="http://www.w3.org/2000/svg" width="30" height="30" viewBox="0 0 30 30">
  <path id="Path_11" data-name="Path 11" d="M0,0H30V30H0Z" fill="none"/>
  <path id="Path_12" data-name="Path 12" d="M20.85,3A7.721,7.721,0,0,0,15,5.773,7.721,7.721,0,0,0,9.15,3,7.155,7.155,0,0,0,2,10.3c0,5.016,4.42,9.1,11.115,15.313L15,27.35,16.885,25.6C23.58,19.4,28,15.314,28,10.3A7.155,7.155,0,0,0,20.85,3ZM15.13,23.634l-.13.133-.13-.133C8.682,17.915,4.6,14.133,4.6,10.3A4.49,4.49,0,0,1,9.15,5.654a5.082,5.082,0,0,1,4.641,3.132h2.431A5.05,5.05,0,0,1,20.85,5.654,4.49,4.49,0,0,1,25.4,10.3C25.4,14.133,21.318,17.915,15.13,23.634Z" transform="translate(0)" fill="#707070"/>
</svg>
