<svg id="institution" xmlns="http://www.w3.org/2000/svg" width="30" height="30" viewBox="0 0 30 30">
  <path id="Path_7" data-name="Path 7" d="M0,0H30V30H0Z" fill="none"/>
  <path id="Path_8" data-name="Path 8" d="M15,8.333V3H2V27H28V8.333Zm-7.8,16H4.6V21.667H7.2ZM7.2,19H4.6V16.333H7.2Zm0-5.333H4.6V11H7.2Zm0-5.333H4.6V5.667H7.2Zm5.2,16H9.8V21.667h2.6ZM12.4,19H9.8V16.333h2.6Zm0-5.333H9.8V11h2.6Zm0-5.333H9.8V5.667h2.6Zm13,16H15V21.667h2.6V19H15V16.333h2.6V13.667H15V11H25.4ZM22.8,13.667H20.2v2.667h2.6ZM22.8,19H20.2v2.667h2.6Z" transform="translate(0)" fill="#707070"/>
</svg>
