<svg xmlns="http://www.w3.org/2000/svg" width="78" height="78" viewBox="0 0 78 78">
  <g id="Plus" transform="translate(-804 -837)">
    <g id="PLUS-2" data-name="PLUS" transform="translate(817.833 850.496)" fill="#707070">
      <path d="M 26.95090103149414 49.43560028076172 L 22.98469924926758 49.43560028076172 L 22.98469924926758 27.45090103149414 L 22.98469924926758 26.95090103149414 L 22.48469924926758 26.95090103149414 L 0.5000001192092896 26.95090103149414 L 0.5000001192092896 22.98469924926758 L 22.48469924926758 22.98469924926758 L 22.98469924926758 22.98469924926758 L 22.98469924926758 22.48469924926758 L 22.98469924926758 0.5000001192092896 L 26.95090103149414 0.5000001192092896 L 26.95090103149414 22.48469924926758 L 26.95090103149414 22.98469924926758 L 27.45090103149414 22.98469924926758 L 49.43560028076172 22.98469924926758 L 49.43560028076172 26.95090103149414 L 27.45090103149414 26.95090103149414 L 26.95090103149414 26.95090103149414 L 26.95090103149414 27.45090103149414 L 26.95090103149414 49.43560028076172 Z" stroke="none"/>
      <path d="M 26.45090103149414 48.93560028076172 L 26.45090103149414 27.45090103149414 L 26.45090103149414 26.45090103149414 L 27.45090103149414 26.45090103149414 L 48.93560028076172 26.45090103149414 L 48.93560028076172 23.48469924926758 L 27.45090103149414 23.48469924926758 L 26.45090103149414 23.48469924926758 L 26.45090103149414 22.48469924926758 L 26.45090103149414 1.00000011920929 L 23.48469924926758 1.00000011920929 L 23.48469924926758 22.48469924926758 L 23.48469924926758 23.48469924926758 L 22.48469924926758 23.48469924926758 L 1.00000011920929 23.48469924926758 L 1.00000011920929 26.45090103149414 L 22.48469924926758 26.45090103149414 L 23.48469924926758 26.45090103149414 L 23.48469924926758 27.45090103149414 L 23.48469924926758 48.93560028076172 L 26.45090103149414 48.93560028076172 M 27.45090103149414 49.93560028076172 L 22.48469924926758 49.93560028076172 L 22.48469924926758 27.45090103149414 L 1.403808624900194e-07 27.45090103149414 L 1.403808624900194e-07 22.48469924926758 L 22.48469924926758 22.48469924926758 L 22.48469924926758 1.403808624900194e-07 L 27.45090103149414 1.403808624900194e-07 L 27.45090103149414 22.48469924926758 L 49.93560028076172 22.48469924926758 L 49.93560028076172 27.45090103149414 L 27.45090103149414 27.45090103149414 L 27.45090103149414 49.93560028076172 Z" stroke="none" fill="#707070"/>
    </g>
    <g id="Ellipse_1" data-name="Ellipse 1" transform="translate(804 837)" fill="none" stroke="#707070" stroke-width="4">
      <circle cx="39" cy="39" r="39" stroke="none"/>
      <circle cx="39" cy="39" r="37" fill="none"/>
    </g>
  </g>
</svg>
